<?xml version="1.0" encoding="UTF-8" standalone="no"?>
<svg width="380px" height="62px" viewBox="0 0 380 62" version="1.1" xmlns="http://www.w3.org/2000/svg" xmlns:xlink="http://www.w3.org/1999/xlink">
    <!-- Generator: Sketch 43.2 (39069) - http://www.bohemiancoding.com/sketch -->
    <title>Brand/Logo Full Horz Light</title>
    <desc>Created with Sketch.</desc>
    <defs>
        <polygon id="path-1" points="28.447 0.793 0.06 0.793 0.06 37.337 56.834 37.337 56.834 0.793 28.447 0.793"></polygon>
    </defs>
    <g id="Symbols" stroke="none" stroke-width="1" fill="none" fill-rule="evenodd">
        <g id="Brand/Logo-Full-Horz-Light">
            <g>
                <g id="Group-4">
                    <mask id="mask-2" fill="white">
                        <use xlink:href="#path-1"></use>
                    </mask>
                    <g id="Clip-2"></g>
                    <path d="M38.179,11.479 L33.85,11.479 L34.856,7.708 L38.179,7.708 C39.484,7.708 40.546,8.554 40.546,9.593 C40.546,10.633 39.484,11.479 38.179,11.479 Z M49.72,21.335 C49.72,22.813 48.272,24.015 46.492,24.015 L30.5,24.015 L31.932,18.655 L46.492,18.655 C48.272,18.655 49.72,19.857 49.72,21.335 Z M47.914,11.479 L47.422,11.479 C47.541,10.904 47.601,10.316 47.601,9.724 C47.601,4.799 43.437,0.793 38.318,0.793 L29.034,0.793 L19.6,35.333 L26.985,37.337 L28.599,31.131 L47.915,31.131 C52.833,31.131 56.834,26.723 56.834,21.305 C56.834,15.887 52.833,11.479 47.914,11.479 L47.914,11.479 Z" id="Fill-1" fill="#AB9157" mask="url(#mask-2)"></path>
                    <path d="M10.148,24.281 C8.368,24.281 6.92,23.079 6.92,21.601 C6.92,20.123 8.368,18.921 10.148,18.921 L21.102,18.921 L23.056,11.745 L18.34,11.745 C17.035,11.745 15.973,10.899 15.973,9.86 C15.973,8.82 17.035,7.974 18.34,7.974 L24.079,7.974 L26.029,0.793 L18.211,0.793 C15.736,0.793 13.407,1.72 11.654,3.402 C9.895,5.092 8.927,7.337 8.927,9.724 C8.927,10.13 8.957,10.541 9.022,10.98 L9.129,11.479 L8.919,11.479 C4.001,11.479 0,15.887 0,21.305 C0,26.723 4.001,31.131 8.919,31.131 L17.782,31.131 L19.646,24.281 L10.148,24.281" id="Fill-3" fill="#AB9157" mask="url(#mask-2)"></path>
                </g>
                <path d="M201.066,59.772 C197.706,59.772 195.075,56.838 195.075,53.091 C195.075,49.671 197.406,47.283 200.744,47.283 C202.18,47.283 203.482,47.677 205.096,48.6 L205.284,48.707 L205.284,45.611 L205.188,45.589 C203.485,45.174 202.005,44.964 200.789,44.964 C195.734,44.964 192.065,48.556 192.065,53.505 C192.065,58.572 195.812,61.978 201.388,61.978 C202.884,61.978 203.883,61.789 205.205,61.256 L205.253,61.236 L206.633,58.032 L206.319,58.2 C204.195,59.332 202.722,59.772 201.066,59.772" id="Fill-5" fill="#AB9157"></path>
                <path d="M214.572,53.716 C216.845,53.08 218.417,51.36 218.417,49.48 C218.417,48.267 217.782,47.038 216.757,46.275 C215.862,45.616 214.698,45.309 213.096,45.309 C212.818,45.309 212.472,45.309 212.055,45.331 C211.529,45.354 211.142,45.354 210.934,45.354 L207.415,45.354 L207.356,45.59 C208.201,46.044 208.371,46.547 208.371,48.583 L208.371,58.356 C208.371,60.393 208.201,60.896 207.356,61.351 L207.415,61.586 L212.015,61.586 L212.075,61.351 C211.23,60.896 211.059,60.393 211.059,58.356 L211.059,47.263 C211.727,47.141 212.135,47.099 212.636,47.099 C214.322,47.099 215.455,48.13 215.455,49.665 C215.455,51.472 214.164,52.567 211.511,53.014 L211.331,53.044 L211.424,53.2 C212.703,55.377 214.218,57.531 215.69,59.265 C217.34,61.241 218.095,61.724 219.535,61.724 C219.974,61.724 220.214,61.705 221.368,61.617 L222.209,61.553 L221.823,61.351 C219.926,60.356 218.087,58.423 214.572,53.716" id="Fill-6" fill="#AB9157"></path>
                <path d="M234.064,58.188 C232.772,59.162 231.465,59.542 229.402,59.542 C228.364,59.542 227.627,59.482 226.538,59.309 L226.538,53.768 L228.575,53.768 C229.595,53.768 230.018,53.912 230.384,54.386 L230.608,54.676 L230.608,51.537 L230.43,51.62 C230.149,51.751 230.004,51.771 229.655,51.771 L226.538,51.771 L226.538,47.472 C227.232,47.365 227.852,47.329 228.919,47.329 C230.445,47.329 231.037,47.52 231.798,48.26 L232.01,48.466 L232.01,45.163 L231.843,45.224 C231.528,45.336 231.405,45.354 230.965,45.354 L222.894,45.354 L222.835,45.59 C223.609,45.997 223.85,46.463 223.85,48.583 L223.85,58.333 C223.85,60.389 223.679,60.896 222.834,61.351 L222.894,61.586 L233.1,61.586 L234.396,57.938 L234.064,58.188" id="Fill-7" fill="#AB9157"></path>
                <path d="M245.134,53.747 L240.556,53.747 L242.855,47.871 L245.134,53.747 Z M249.71,58.149 L244.605,45.433 L244.574,45.354 L240.625,45.354 L240.57,45.592 C241.13,45.871 241.237,46.1 241.237,46.423 C241.237,46.683 241.164,46.97 240.969,47.48 L236.693,58.151 C235.9,60.209 235.591,60.657 234.489,61.355 L234.123,61.586 L239.016,61.586 L239.075,61.351 C238.471,61.027 238.267,60.782 238.267,60.38 C238.267,60.075 238.37,59.616 238.536,59.183 L239.885,55.562 L245.852,55.562 L247.247,59.184 C247.619,60.138 247.652,60.293 247.652,60.495 C247.652,60.805 247.581,60.913 246.84,61.354 L246.449,61.586 L252.402,61.586 L252.001,61.353 C250.949,60.739 250.478,60.08 249.71,58.149 L249.71,58.149 Z" id="Fill-8" fill="#AB9157"></path>
                <path d="M261.621,45.302 L261.578,45.309 C261.512,45.309 261.382,45.315 261.191,45.326 C261.04,45.334 260.853,45.344 260.634,45.354 L251.505,45.354 C251.068,45.354 250.575,45.291 250.304,45.2 L250.183,45.159 L249.133,48.547 L249.442,48.315 C250.412,47.588 250.987,47.421 252.517,47.421 C253.063,47.421 253.859,47.441 254.347,47.48 L254.347,58.356 C254.347,60.356 254.158,60.916 253.332,61.351 L253.391,61.586 L258.609,61.586 L258.266,61.357 C257.265,60.688 257.035,60.175 257.035,58.609 L257.035,47.49 L257.308,47.49 C258.477,47.421 258.477,47.421 259.001,47.421 C260.357,47.421 260.822,47.604 261.167,48.273 L261.314,48.56 L262.244,45.118 L262.017,45.201 C261.811,45.276 261.74,45.286 261.621,45.302" id="Fill-9" fill="#AB9157"></path>
                <path d="M270.065,59.542 C269.027,59.542 268.29,59.482 267.201,59.309 L267.201,53.768 L269.238,53.768 C270.258,53.768 270.681,53.912 271.047,54.386 L271.271,54.676 L271.271,51.537 L271.093,51.62 C270.812,51.751 270.667,51.771 270.318,51.771 L267.201,51.771 L267.201,47.472 C267.895,47.365 268.515,47.329 269.582,47.329 C271.108,47.329 271.7,47.52 272.461,48.26 L272.673,48.466 L272.673,45.163 L272.506,45.224 C272.191,45.336 272.068,45.354 271.628,45.354 L263.557,45.354 L263.499,45.59 C264.272,45.997 264.513,46.463 264.513,48.583 L264.513,58.333 C264.513,60.389 264.342,60.896 263.497,61.351 L263.557,61.586 L273.763,61.586 L275.059,57.938 L274.727,58.188 C273.435,59.162 272.128,59.542 270.065,59.542" id="Fill-10" fill="#AB9157"></path>
                <path d="M292.223,54.052 C291.464,53.436 290.628,53 288.655,52.081 C285.797,50.765 285.14,50.201 285.14,49.066 C285.14,47.779 286.374,46.915 288.211,46.915 C289.609,46.915 290.941,47.466 291.963,48.466 L292.176,48.674 L292.176,45.522 L292.085,45.497 C290.773,45.128 289.621,44.964 288.349,44.964 C284.6,44.964 282.177,46.701 282.177,49.389 C282.177,50.481 282.665,51.565 283.482,52.286 C284.184,52.941 284.945,53.38 286.872,54.239 C288.839,55.143 289.413,55.456 289.944,55.92 C290.422,56.353 290.708,56.963 290.708,57.552 C290.708,58.897 289.2,59.91 287.2,59.91 C285.287,59.91 283.567,59.287 281.942,58.006 L281.657,57.78 L282.496,61.211 L282.558,61.233 C284.055,61.778 285.307,62 286.877,62 C289.047,62 290.786,61.385 292.046,60.171 C293.036,59.207 293.58,58.007 293.58,56.793 C293.58,55.711 293.097,54.737 292.223,54.052" id="Fill-11" fill="#AB9157"></path>
                <path d="M309.591,45.589 L309.531,45.354 L304.931,45.354 L304.871,45.589 C305.659,46.023 305.887,46.47 305.887,48.583 L305.887,56.472 C305.887,57.384 305.77,57.835 305.405,58.331 C304.692,59.333 303.391,59.956 302.011,59.956 C300.8,59.956 299.712,59.486 299.025,58.666 C298.38,57.91 298.204,57.261 298.204,55.644 L298.204,48.583 C298.204,46.47 298.432,46.023 299.22,45.589 L299.16,45.354 L294.561,45.354 L294.501,45.59 C295.345,46.044 295.516,46.547 295.516,48.583 L295.516,55.644 C295.516,57.612 295.637,58.353 296.105,59.241 C296.973,60.954 298.914,61.978 301.298,61.978 C303.253,61.978 304.827,61.351 305.979,60.113 L305.979,61.586 L309.531,61.586 L309.591,61.352 C308.803,60.916 308.575,60.47 308.575,58.356 L308.575,48.583 C308.575,46.47 308.803,46.023 309.591,45.589" id="Fill-12" fill="#AB9157"></path>
                <path d="M319.606,59.772 C316.246,59.772 313.614,56.838 313.614,53.091 C313.614,49.671 315.946,47.283 319.284,47.283 C320.72,47.283 322.022,47.677 323.636,48.6 L323.824,48.707 L323.824,45.611 L323.728,45.589 C322.025,45.174 320.545,44.964 319.33,44.964 C314.274,44.964 310.605,48.556 310.605,53.505 C310.605,58.572 314.352,61.978 319.928,61.978 C321.424,61.978 322.423,61.789 323.746,61.256 L323.793,61.236 L325.173,58.032 L324.859,58.2 C322.735,59.332 321.262,59.772 319.606,59.772" id="Fill-13" fill="#AB9157"></path>
                <path d="M335.016,59.772 C331.656,59.772 329.024,56.838 329.024,53.091 C329.024,49.671 331.356,47.283 334.694,47.283 C336.13,47.283 337.432,47.677 339.046,48.6 L339.234,48.707 L339.234,45.611 L339.138,45.589 C337.435,45.174 335.955,44.964 334.74,44.964 C329.684,44.964 326.015,48.556 326.015,53.505 C326.015,58.572 329.762,61.978 335.338,61.978 C336.834,61.978 337.833,61.789 339.156,61.256 L339.204,61.236 L340.583,58.032 L340.269,58.2 C338.145,59.332 336.672,59.772 335.016,59.772" id="Fill-14" fill="#AB9157"></path>
                <path d="M347.873,59.542 C346.835,59.542 346.099,59.482 345.009,59.309 L345.009,53.768 L347.046,53.768 C348.067,53.768 348.49,53.912 348.856,54.386 L349.08,54.676 L349.08,51.537 L348.902,51.62 C348.621,51.751 348.476,51.771 348.126,51.771 L345.009,51.771 L345.009,47.472 C345.704,47.365 346.324,47.329 347.391,47.329 C348.916,47.329 349.508,47.52 350.27,48.26 L350.482,48.466 L350.482,45.163 L350.315,45.224 C349.999,45.336 349.876,45.354 349.437,45.354 L341.366,45.354 L341.307,45.59 C342.08,45.997 342.322,46.463 342.322,48.583 L342.322,58.333 C342.322,60.389 342.151,60.896 341.306,61.351 L341.366,61.586 L351.572,61.586 L352.868,57.938 L352.536,58.188 C351.244,59.162 349.937,59.542 347.873,59.542" id="Fill-15" fill="#AB9157"></path>
                <path d="M364.489,54.052 C363.73,53.436 362.894,53 360.92,52.081 C358.063,50.765 357.406,50.201 357.406,49.066 C357.406,47.779 358.64,46.915 360.477,46.915 C361.874,46.915 363.206,47.466 364.229,48.466 L364.442,48.674 L364.442,45.522 L364.351,45.497 C363.038,45.128 361.886,44.964 360.615,44.964 C356.866,44.964 354.443,46.701 354.443,49.389 C354.443,50.481 354.931,51.565 355.747,52.286 C356.45,52.941 357.21,53.38 359.138,54.239 C361.105,55.143 361.679,55.456 362.209,55.92 C362.688,56.353 362.974,56.963 362.974,57.552 C362.974,58.897 361.465,59.91 359.465,59.91 C357.552,59.91 355.832,59.287 354.207,58.006 L353.922,57.78 L354.746,61.146 L354.761,61.211 L354.824,61.233 C356.321,61.778 357.573,62 359.143,62 C361.313,62 363.051,61.385 364.312,60.171 C365.301,59.207 365.845,58.007 365.845,56.793 C365.845,55.711 365.363,54.737 364.489,54.052" id="Fill-16" fill="#AB9157"></path>
                <path d="M377.829,54.052 C377.07,53.436 376.234,53 374.26,52.081 C371.403,50.765 370.746,50.201 370.746,49.066 C370.746,47.779 371.98,46.915 373.817,46.915 C375.214,46.915 376.546,47.466 377.569,48.466 L377.782,48.674 L377.782,45.522 L377.691,45.497 C376.378,45.128 375.226,44.964 373.955,44.964 C370.205,44.964 367.783,46.701 367.783,49.389 C367.783,50.481 368.271,51.565 369.087,52.286 C369.789,52.941 370.55,53.38 372.478,54.239 C374.445,55.143 375.019,55.456 375.549,55.92 C376.028,56.353 376.314,56.963 376.314,57.552 C376.314,58.897 374.805,59.91 372.805,59.91 C370.892,59.91 369.172,59.287 367.547,58.006 L367.262,57.78 L368.085,61.146 L368.101,61.211 L368.163,61.233 C369.661,61.778 370.913,62 372.483,62 C374.653,62 376.391,61.385 377.652,60.171 C378.641,59.207 379.185,58.007 379.185,56.793 C379.185,55.711 378.703,54.737 377.829,54.052" id="Fill-17" fill="#AB9157"></path>
                <path d="M73.39,30.817 L79.959,31.42 C83.373,31.721 86.943,30.667 89.529,28.458 L89.684,28.458 L87.356,35.034 L65.786,35.034 L65.786,34.884 C68.424,33.98 68.114,30.265 68.114,28.006 L68.114,9.08 C68.114,6.771 68.424,3.106 65.786,2.152 L65.786,2.001 L82.339,2.001 C83.218,2.001 84.098,2.102 84.77,1.75 L84.925,1.75 L84.925,7.624 L84.77,7.624 C83.166,5.817 81.046,5.616 78.666,5.616 C76.856,5.616 75.045,5.666 73.39,5.968 L73.39,15.305 L79.546,15.305 C80.373,15.305 81.201,15.305 81.822,15.004 L81.977,15.004 L81.977,20.325 L81.822,20.325 C80.994,18.869 78.822,18.919 77.218,18.919 L73.39,18.919 L73.39,30.817" id="Fill-18" fill="#FFFFFF"></path>
                <path d="M92.422,11.941 C93.56,11.941 94.802,11.891 95.888,11.289 L96.043,11.289 L96.043,15.154 C97.854,12.745 99.974,11.289 103.336,11.289 C106.233,11.289 109.544,12.394 111.199,14.753 C112.647,16.761 112.492,19.873 112.492,22.233 L112.492,29.512 C112.492,31.821 112.182,33.628 114.458,34.884 L114.458,35.034 L105.819,35.034 L105.819,34.884 C108.096,33.628 107.785,31.771 107.785,29.512 L107.785,22.735 C107.785,17.363 106.233,14.602 101.526,14.602 C96.819,14.602 96.043,17.665 96.043,20.626 L96.043,29.512 C96.043,31.821 95.733,33.628 98.009,34.884 L98.009,35.034 L89.37,35.034 L89.37,34.884 C91.646,33.628 91.336,31.771 91.336,29.462 L91.336,17.514 C91.336,15.205 91.646,13.347 89.37,12.092 L89.37,11.941 L92.422,11.941" id="Fill-19" fill="#FFFFFF"></path>
                <path d="M121.593,25.295 C121.593,27.203 120.973,32.373 126.507,32.373 C127.231,32.373 127.904,32.123 128.577,31.872 L125.835,35.436 C125.317,35.586 124.748,35.687 124.18,35.687 C116.162,35.687 116.886,27.655 116.886,25.697 L116.886,15.255 L113.369,15.255 L113.369,13.448 C118.231,12.644 119.524,9.13 119.524,4.461 L121.593,4.461 L121.593,11.941 L126.455,11.941 C127.128,11.941 127.904,11.941 128.421,11.64 L128.577,11.64 L128.577,16.208 L128.421,16.208 C127.594,15.154 126.042,15.255 124.697,15.255 L121.593,15.255 L121.593,25.295" id="Fill-20" fill="#FFFFFF"></path>
                <path d="M147.144,19.773 C146.575,16.259 144.196,14.602 140.471,14.602 C137.006,14.602 134.419,16.61 133.798,19.773 L147.144,19.773 Z M133.592,22.685 C133.695,28.809 138.092,32.373 143.937,32.373 C147.04,32.373 150.041,31.52 152.42,29.713 L152.576,29.713 L149.989,34.432 C147.765,35.335 145.282,35.687 142.851,35.687 C134.057,35.687 128.005,30.315 128.005,23.337 C128.005,16.359 133.229,11.289 140.937,11.289 C147.972,11.289 152.782,16.208 152.576,22.685 L133.592,22.685 L133.592,22.685 Z" id="Fill-21" fill="#FFFFFF"></path>
                <path d="M156.71,11.941 C157.9,11.941 159.142,11.891 159.866,11.289 L160.021,11.289 L160.021,15.104 C161.159,12.845 163.538,11.289 166.124,11.289 L167.987,11.439 L167.987,16.058 C167.418,15.456 166.487,15.255 165.607,15.255 C161.676,15.255 160.021,17.263 160.021,22.434 L160.021,29.462 C160.021,31.771 159.71,33.628 161.986,34.884 L161.986,35.034 L153.348,35.034 L153.348,34.884 C155.624,33.628 155.313,31.771 155.313,29.462 L155.313,17.464 C155.313,15.154 155.624,13.347 153.4,12.092 L153.4,11.941 L156.71,11.941" id="Fill-22" fill="#FFFFFF"></path>
                <path d="M172.537,11.941 C173.675,11.941 174.916,11.841 175.64,11.289 L175.795,11.289 L175.795,14.853 C177.554,12.494 181.382,11.289 184.279,11.289 C191.469,11.289 196.123,16.661 196.123,23.237 C196.123,30.215 190.9,35.687 183.658,35.687 C182.313,35.687 181.02,35.486 179.83,35.034 L177.037,30.917 C178.847,31.771 180.709,32.373 182.675,32.373 C188.158,32.373 190.9,28.809 190.9,23.789 C190.9,19.12 188.313,14.803 182.985,14.803 C180.813,14.803 178.692,15.656 177.244,17.213 C175.744,18.769 175.795,20.576 175.795,22.584 L175.795,39.804 C175.795,42.112 175.485,43.92 177.761,45.175 L177.761,45.325 L169.122,45.325 L169.122,45.175 C171.398,43.92 171.088,42.112 171.088,39.804 L171.088,17.464 C171.088,15.154 171.398,13.297 169.122,12.092 L169.122,11.941 L172.537,11.941" id="Fill-23" fill="#FFFFFF"></path>
                <path d="M199.483,11.941 C200.672,11.941 201.913,11.891 202.637,11.289 L202.793,11.289 L202.793,15.104 C203.93,12.845 206.311,11.289 208.897,11.289 L210.758,11.439 L210.758,16.058 C210.19,15.456 209.258,15.255 208.379,15.255 C204.448,15.255 202.793,17.263 202.793,22.434 L202.793,29.462 C202.793,31.771 202.483,33.628 204.758,34.884 L204.758,35.034 L196.12,35.034 L196.12,34.884 C198.395,33.628 198.086,31.771 198.086,29.462 L198.086,17.464 C198.086,15.154 198.395,13.347 196.172,12.092 L196.172,11.941 L199.483,11.941" id="Fill-24" fill="#FFFFFF"></path>
                <path d="M216.342,8.93 C214.43,8.93 212.981,7.474 212.981,5.616 C212.981,3.859 214.635,2.654 216.342,2.654 C218.102,2.654 219.448,4.11 219.448,5.767 C219.448,7.423 218.102,8.93 216.342,8.93 Z M215.36,11.941 C216.549,11.941 217.844,11.891 218.723,11.138 L218.877,11.138 L218.877,29.462 C218.877,31.771 218.567,33.628 220.844,34.884 L220.844,35.034 L212.205,35.034 L212.205,34.884 C214.481,33.628 214.17,31.771 214.17,29.462 L214.17,17.464 C214.17,15.154 214.481,13.347 212.205,12.092 L212.205,11.941 L215.36,11.941 L215.36,11.941 Z" id="Fill-25" fill="#FFFFFF"></path>
                <path d="M237.653,16.208 C235.739,15.205 233.567,14.602 231.291,14.602 C229.584,14.602 226.481,15.004 226.481,17.012 C226.481,21.48 240.498,19.873 240.498,27.855 C240.498,32.524 235.584,35.687 228.911,35.687 C226.584,35.687 224.36,35.335 222.188,34.482 L220.377,29.562 C223.377,31.42 226.532,32.373 230.102,32.373 C232.221,32.373 235.791,31.671 235.791,29.11 C235.791,24.04 221.774,25.646 221.774,18.016 C221.774,12.694 227.463,11.289 231.913,11.289 C233.827,11.289 235.791,11.439 237.653,11.941 L237.653,16.208" id="Fill-26" fill="#FFFFFF"></path>
                <path d="M260.514,19.773 C259.946,16.259 257.565,14.602 253.842,14.602 C250.375,14.602 247.789,16.61 247.168,19.773 L260.514,19.773 Z M246.961,22.685 C247.065,28.809 251.461,32.373 257.307,32.373 C260.411,32.373 263.411,31.52 265.789,29.713 L265.946,29.713 L263.36,34.432 C261.135,35.335 258.653,35.687 256.221,35.687 C247.428,35.687 241.375,30.315 241.375,23.337 C241.375,16.359 246.6,11.289 254.307,11.289 C261.342,11.289 266.153,16.208 265.946,22.685 L246.961,22.685 L246.961,22.685 Z" id="Fill-27" fill="#FFFFFF"></path>
                <path d="M290.536,31.42 C294.778,31.821 299.071,29.914 299.071,25.144 C299.071,20.275 294.209,18.167 289.657,18.417 L286.036,18.618 L286.036,31.018 L290.536,31.42 Z M287.743,15.305 C291.106,15.305 295.917,14.201 295.917,10.084 C295.917,6.62 292.606,4.813 289.502,5.114 L286.036,5.465 L286.036,15.305 L287.743,15.305 Z M280.76,9.03 C280.76,6.771 281.121,3.106 278.485,2.152 L278.485,2.001 L290.743,2.001 C297.571,2.001 301.555,4.813 301.555,9.281 C301.555,12.644 299.33,14.552 296.381,15.807 C301.038,16.761 304.813,19.773 304.813,24.693 C304.813,28.558 302.073,31.872 298.606,33.478 C294.985,35.185 290.899,35.034 287.02,35.034 L278.485,35.034 L278.485,34.884 C281.071,33.93 280.76,30.265 280.76,27.956 L280.76,9.03 L280.76,9.03 Z" id="Fill-28" fill="#FFFFFF"></path>
                <path d="M327.465,35.687 C324.051,35.486 320.637,34.482 320.637,30.466 L320.637,22.534 C319.137,23.287 317.379,23.688 315.672,24.09 C313.19,24.643 310.395,25.195 310.395,28.257 C310.395,31.37 313.293,32.373 316.034,32.373 C317.276,32.373 318.516,32.022 319.758,31.671 L316.707,35.436 C315.827,35.586 314.897,35.687 314.016,35.687 C308.792,35.687 305.172,32.474 305.172,28.307 C305.172,18.97 320.637,23.287 320.637,17.815 C320.637,15.405 317.586,14.602 315.672,14.602 C313.034,14.602 310.965,15.556 308.637,16.61 L312.102,11.59 L315.465,11.289 C321.051,11.289 325.293,12.845 325.344,18.919 L325.344,26.45 C325.344,30.415 325.448,31.922 329.743,32.373 L327.465,35.687" id="Fill-29" fill="#FFFFFF"></path>
                <path d="M331.911,11.941 C333.049,11.941 334.292,11.891 335.377,11.289 L335.532,11.289 L335.532,15.154 C337.342,12.745 339.463,11.289 342.827,11.289 C345.723,11.289 349.034,12.394 350.688,14.753 C352.137,16.761 351.981,19.873 351.981,22.233 L351.981,29.512 C351.981,31.821 351.67,33.628 353.948,34.884 L353.948,35.034 L345.309,35.034 L345.309,34.884 C347.584,33.628 347.274,31.771 347.274,29.512 L347.274,22.735 C347.274,17.363 345.723,14.602 341.016,14.602 C336.309,14.602 335.532,17.665 335.532,20.626 L335.532,29.512 C335.532,31.821 335.221,33.628 337.498,34.884 L337.498,35.034 L328.86,35.034 L328.86,34.884 C331.135,33.628 330.825,31.771 330.825,29.462 L330.825,17.514 C330.825,15.205 331.135,13.347 328.86,12.092 L328.86,11.941 L331.911,11.941" id="Fill-30" fill="#FFFFFF"></path>
                <path d="M362.116,22.132 L366.411,17.564 C367.186,16.71 369.047,14.803 369.047,13.548 C369.047,12.845 368.582,12.394 368.065,12.092 L368.065,11.941 L375.928,11.941 L367.289,21.63 L373.6,29.412 C375.204,31.47 376.756,33.628 379.082,35.034 L375.049,35.034 C372.047,35.034 370.754,33.578 369.772,32.223 L362.116,22.132 Z M357.926,2.001 C359.065,2.001 360.307,1.952 360.979,1.198 L361.133,1.198 L361.133,29.462 C361.133,31.771 360.823,33.628 363.151,34.884 L363.151,35.034 L354.512,35.034 L354.512,34.884 C356.737,33.628 356.426,31.771 356.426,29.462 L356.426,7.574 C356.426,5.265 356.737,3.407 354.512,2.152 L354.512,2.001 L357.926,2.001 L357.926,2.001 Z" id="Fill-31" fill="#FFFFFF"></path>
            </g>
        </g>
    </g>
</svg>