<?xml version="1.0" encoding="UTF-8" standalone="no"?>
<svg width="47px" height="29px" viewBox="0 0 47 29" version="1.1" xmlns="http://www.w3.org/2000/svg" xmlns:xlink="http://www.w3.org/1999/xlink">
    <!-- Generator: Sketch 43.2 (39069) - http://www.bohemiancoding.com/sketch -->
    <title>Brand/FDIC</title>
    <desc>Created with Sketch.</desc>
    <defs></defs>
    <g id="EB-Homepage-v1.0" stroke="none" stroke-width="1" fill="none" fill-rule="evenodd">
        <g id="2_Enterprise_@768px" transform="translate(-73.000000, -4203.000000)" fill="#FFFFFF">
            <g id="Footer/Fine-Print" transform="translate(24.000000, 4108.000000)">
                <g id="Brand/FDIC" transform="translate(49.000000, 95.000000)">
                    <path d="M11.1505,10.609 L17.54375,10.609 C23.308,10.609 26.985,14.1535 26.985,19.68575 C26.985,25.81425 22.9105,28.79575 16.4175,28.79575 L11.1505,28.79575 L11.1505,10.609 Z M17.14775,14.7805 C16.916,14.7805 16.61775,14.8135 16.22025,14.8135 L16.22025,24.61925 C19.46675,24.61925 21.9845,23.327 21.9845,19.58375 C21.9845,16.3705 19.9305,14.7805 17.14775,14.7805 L17.14775,14.7805 Z" id="Fill-2"></path>
                    <path d="M46.79525,15.9035 L46.79525,11.1 C45.5035,10.57 44.34375,10.27175 42.72075,10.27175 C37.38725,10.27175 33.11375,14.31325 33.11375,19.64675 C33.11375,24.98025 37.321,28.88925 42.62125,28.88925 C44.5095,28.88925 45.8015,28.49175 46.79525,27.72975 L46.79525,22.92625 C45.3045,23.854 44.2775,24.2515 42.88625,24.2515 C40.203,24.2515 38.116,22.297 38.116,19.415 C38.116,16.599 40.236,14.54525 42.88625,14.54525 C44.34375,14.54525 45.404,15.04225 46.79525,15.9035" id="Fill-3"></path>
                    <path d="M0.0235,6.9625 L0.0235,7.82375 L3.56825,7.82375 L3.56825,6.9625 C2.54125,6.92925 2.37575,6.79675 2.37575,6.10125 L2.37575,1.7615 L4.49575,7.82375 L5.39025,7.82375 L7.676,1.7615 L7.676,6.00175 C7.676,6.89625 7.676,6.89625 6.41725,6.9625 L6.41725,7.82375 L10.525,7.82375 L10.525,6.9625 C9.33225,6.9625 9.29925,6.83 9.29925,6.2005 L9.29925,1.96025 C9.29925,1.2645 9.3985,1.03275 10.525,1.03275 L10.525,0.13825 L7.0135,0.13825 L5.2245,5.008 L3.56825,0.13825 L0.0235,0.13825 L0.0235,1.03275 C1.0175,1.03275 1.183,1.03275 1.183,1.894 L1.183,5.96875 C1.183,6.76375 1.183,6.9625 0.0235,6.9625" id="Fill-4"></path>
                    <path d="M17.21175,6.9625 L17.21175,7.82375 L20.4915,7.82375 L20.4915,6.9625 C19.69625,6.92925 19.69625,6.83 19.69625,5.73675 L19.69625,4.80925 C19.69625,3.91475 20.09375,3.186 20.922,3.186 C21.58475,3.186 21.78325,3.61675 21.78325,4.213 L21.78325,6.1675 C21.78325,6.83 21.75025,6.9625 20.95525,6.9625 L20.95525,7.82375 L23.9035,7.82375 L23.9035,6.9625 C23.20775,6.9625 23.1415,6.89625 23.1415,6.23375 L23.1415,4.8755 C23.1415,3.948 23.57225,3.153 24.4335,3.153 C25.096,3.153 25.2285,3.55025 25.2285,4.3455 L25.2285,6.333 C25.2285,6.89625 25.2285,6.9625 24.4335,6.9625 L24.4335,7.82375 L27.68,7.82375 L27.68,6.9625 C26.68625,6.9625 26.62,6.9955 26.62,6.4325 L26.62,4.213 C26.62,2.954 26.32175,2.22525 25.02975,2.22525 C24.26775,2.22525 23.771,2.5235 23.1415,3.186 C22.81025,2.58975 22.3465,2.19225 21.5515,2.19225 C20.72325,2.19225 20.16,2.62275 19.69625,3.25225 L19.69625,2.35775 L17.21175,2.35775 L17.21175,3.153 C18.2055,3.153 18.305,3.186 18.305,3.981 L18.305,5.803 C18.305,6.9625 18.305,6.9625 17.21175,6.9625" id="Fill-5"></path>
                    <polyline id="Fill-6" points="0.18275 10.609 0.18275 28.79575 5.18475 28.79575 5.218 21.839 10.0875 21.839 10.0875 17.632 5.251 17.632 5.218 14.816 10.452 14.816 10.452 10.609 0.18275 10.609"></polyline>
                    <path d="M28.0765,0.14075 L30.3955,0.14075 L30.3955,2.9565 C31.025,2.4265 31.4225,2.22775 32.05175,2.22775 C33.377,2.22775 34.2715,3.42025 34.2715,5.0765 C34.2715,6.8655 33.377,8.025 31.853,8.025 C31.12425,8.025 30.6605,7.793 30.1635,7.263 L29.69975,7.8925 L29.00425,7.8925 L29.00425,1.9295 C29.00425,1.035 28.938,0.93575 28.0765,0.93575 L28.0765,0.14075 Z M32.71575,5.07375 C32.71575,3.815 32.252,3.1855 31.5895,3.1855 C30.72825,3.1855 30.36375,3.88125 30.36375,5.17325 C30.36375,6.2995 30.7945,7.0615 31.55625,7.0615 C32.18575,7.0615 32.71575,6.46525 32.71575,5.07375 L32.71575,5.07375 Z" id="Fill-7"></path>
                    <path d="M41.32675,6.9625 L41.32675,7.82375 L44.9045,7.82375 L44.9045,6.9625 C43.9105,6.9625 43.81125,6.9955 43.81125,6.2005 L43.81125,5.008 C43.81125,3.91475 44.17575,2.921 45.1695,2.921 C45.23575,2.921 45.302,2.921 45.50075,2.98725 C45.1695,3.153 44.9375,3.38475 44.9375,3.74925 C44.9375,4.17975 45.269,4.478 45.6995,4.478 C46.2295,4.478 46.594,4.0805 46.594,3.484 C46.594,2.75525 46.06375,2.22525 45.33525,2.22525 C44.739,2.22525 44.30825,2.5235 43.77825,3.11975 L43.77825,2.35775 L41.32675,2.35775 L41.32675,3.153 C42.188,3.153 42.42,3.153 42.42,3.88175 L42.42,6.13425 C42.42,6.89625 42.42,6.9625 41.32675,6.9625" id="Fill-8"></path>
                    <path d="M36.82175,5.24275 C36.82175,6.30275 37.31875,7.0315 38.21325,7.0315 C39.00825,7.0315 39.3725,6.56775 39.50525,5.839 L40.499,5.839 C40.33325,7.23025 39.40575,7.99225 38.08075,7.99225 C36.4905,7.99225 35.298,7.0315 35.298,5.1765 C35.298,3.48675 36.358,2.228 37.94825,2.228 C39.50525,2.228 40.499,3.42075 40.499,5.24275 L36.82175,5.24275 Z M37.94825,3.08475 C37.28575,3.08475 36.88825,3.5485 36.88825,4.37675 L38.97525,4.37675 C38.97525,3.5155 38.644,3.08475 37.94825,3.08475 L37.94825,3.08475 Z" id="Fill-9"></path>
                    <path d="M12.707,5.24275 C12.707,6.30275 13.237,7.0315 14.1315,7.0315 C14.9265,7.0315 15.29075,6.56775 15.42325,5.839 L16.384,5.839 C16.2185,7.23025 15.324,7.99225 13.999,7.99225 C12.40875,7.99225 11.183,7.0315 11.183,5.1765 C11.183,3.48675 12.27625,2.228 13.8665,2.228 C15.42325,2.228 16.384,3.42075 16.384,5.24275 L12.707,5.24275 Z M13.866,3.08475 C13.2035,3.08475 12.806,3.5485 12.806,4.37675 L14.86,4.37675 C14.86,3.48225 14.52875,3.08475 13.866,3.08475 L13.866,3.08475 Z" id="Fill-10"></path>
                    <polygon id="Fill-11" points="27.51525 28.79575 32.5175 28.79575 32.5175 10.609 27.51525 10.609"></polygon>
                </g>
            </g>
        </g>
    </g>
</svg>