<?xml version="1.0" encoding="UTF-8" standalone="no"?>
<svg width="33px" height="34px" viewBox="0 0 33 34" version="1.1" xmlns="http://www.w3.org/2000/svg" xmlns:xlink="http://www.w3.org/1999/xlink">
    <!-- Generator: Sketch 43.2 (39069) - http://www.bohemiancoding.com/sketch -->
    <title>Brand/EqualHousingLender</title>
    <desc>Created with Sketch.</desc>
    <defs></defs>
    <g id="EB-Homepage-v1.0" stroke="none" stroke-width="1" fill="none" fill-rule="evenodd">
        <g id="2_Enterprise_@768px" transform="translate(-24.000000, -4198.000000)" fill="#FFFFFF">
            <g id="Footer/Fine-Print" transform="translate(24.000000, 4108.000000)">
                <g id="Brand/EqualHousingLender" transform="translate(0.000000, 90.000000)">
                    <path d="M0.115456828,9.51363743 L16.6632181,0.00994152047 L32.842148,9.60768421 L32.842148,12.9480351 L30.2609195,12.9480351 L30.2609195,24.7569708 L2.65058142,24.7569708 L2.65058142,12.9480351 L0.115456828,12.9480351 L0.115456828,9.51363743 Z M16.6620359,3.58869006 L6.01439444,9.89300585 L6.01439444,21.7488655 L27.0795519,21.7488655 L27.0795519,9.89300585 L16.6620359,3.58869006 Z" id="Combined-Shape"></path>
                    <polygon id="Fill-4" points="10.9991346 14.4076491 22.0156075 14.4076491 22.0156075 11.490807 10.9991346 11.490807"></polygon>
                    <polygon id="Fill-5" points="10.9991346 18.7516959 22.0156075 18.7516959 22.0156075 15.8348538 10.9991346 15.8348538"></polygon>
                    <path d="M16.9983581,33.8130994 L16.9983581,30.0963626 L18.9343288,30.0963626 C20.3170523,30.0963626 21.2850377,30.5198713 21.2850377,32.0254152 C21.2850377,33.4838363 20.4092602,33.8130994 18.8882248,33.8130994 L16.9983581,33.8130994 Z M18.0116593,30.8946667 L18.0116593,33.0118129 L18.8413328,33.0118129 C19.6249025,33.0118129 20.1781495,32.8706433 20.1781495,32.0238246 C20.1781495,31.2710526 19.5787985,30.8946667 18.9335407,30.8946667 L18.0116593,30.8946667 Z" id="Combined-Shape"></path>
                    <path d="M27.1014217,33.8130994 L27.1014217,30.0963626 L29.774858,30.0963626 C30.7889473,30.0963626 31.2038826,30.4258246 31.2038826,31.2726433 C31.2038826,31.8842456 30.8811551,32.1665848 30.1895963,32.2606316 L31.2499865,33.8130994 L30.1436894,33.8130994 L29.0834962,32.2606316 L28.1155109,32.2606316 L28.1155109,33.8130994 L27.1014217,33.8130994 Z M29.6320147,30.9002339 L28.1107823,30.9002339 L28.1107823,31.4649123 L29.5859108,31.4649123 C30.0930539,31.4649123 30.2311686,31.4649123 30.2311686,31.1825731 C30.2311686,30.9473567 30.0467529,30.9002339 29.6320147,30.9002339 Z" id="Combined-Shape"></path>
                    <polyline id="Fill-10" points="11.4408654 30.0963626 11.4408654 33.8130994 12.4088507 33.8130994 12.4088507 31.5549825 14.3448213 33.8130994 15.4972223 33.8130994 15.4972223 30.0963626 14.529237 30.0963626 14.529237 32.4016023 12.5932664 30.0963626 11.4408654 30.0963626"></polyline>
                    <polyline id="Fill-11" points="1.93754684 30.0963626 1.93754684 33.8130994 5.57916554 33.8130994 5.57916554 33.0134035 2.95183311 32.9662807 2.95183311 30.0963626 1.93754684 30.0963626"></polyline>
                    <polyline id="Fill-12" points="6.62182345 33.8130994 10.1710373 33.8130994 10.1710373 33.0134035 7.68181959 33.0134035 7.68181959 32.2135088 9.75610199 32.2135088 9.75610199 31.4609357 7.68181959 31.4609357 7.68181959 30.8962573 10.1710373 30.8962573 10.1710373 30.0963626 6.62182345 30.0963626 6.62182345 33.8130994"></polyline>
                    <polyline id="Fill-13" points="22.4197064 30.0963626 22.4197064 33.8130994 25.9228163 33.7661754 25.9228163 33.0134035 23.4337956 33.0134035 23.4337956 32.2135088 25.5539849 32.2135088 25.5539849 31.4609357 23.4337956 31.4609357 23.4337956 30.8962573 25.9228163 30.8962573 25.9228163 30.0963626 22.4197064 30.0963626"></polyline>
                    <path d="M9.16187367,29.181345 L10.0837551,25.8409942 L10.8675217,25.8409942 L11.7894031,29.181345 L11.0714429,29.181345 L10.8675217,28.4285731 L10.0376511,28.4285731 L9.83372996,29.181345 L9.16187367,29.181345 Z M10.4563299,26.5557895 L10.1797064,27.8732398 L10.7790574,27.8732398 L10.4563299,26.5557895 Z" id="Combined-Shape"></path>
                    <path d="M4.02246861,27.9591345 L4.02246861,27.0649942 C4.02246861,26.2183743 4.29909214,25.7477427 5.12876569,25.7477427 C6.05064709,25.7477427 6.23506278,26.3124211 6.23506278,27.112117 L6.23506278,27.8179649 C6.23506278,28.2412749 6.18895886,28.4295673 6.05064709,28.7119064 L6.60369712,28.9 L6.5575932,29.1352164 C4.66772648,29.1352164 4.02246861,29.0882924 4.02246861,27.9591345 Z M4.71107205,27.1111228 L4.71107205,27.9110175 C4.71107205,28.5226199 4.80327989,28.7107135 5.12600734,28.7107135 C5.49483871,28.7107135 5.54074561,28.5697427 5.54074561,27.9579415 L5.54074561,27.0641988 C5.54074561,26.4054737 5.49483871,26.3114269 5.17211126,26.3114269 C4.75717597,26.3114269 4.71107205,26.4995205 4.71107205,27.1111228 Z" id="Combined-Shape"></path>
                    <path d="M22.8297161,28.2872047 C22.8297161,28.8047602 23.1524435,29.228269 23.8899092,29.228269 C24.4890632,29.228269 25.0423102,28.8047602 25.0423102,28.2872047 C25.0423102,27.4875088 23.5671818,27.1111228 23.5671818,26.5935673 C23.5671818,26.4052749 23.7515975,26.3112281 23.9360131,26.3112281 C24.2126367,26.3112281 24.3507514,26.4995205 24.4890632,26.7816608 L24.9501024,26.5935673 C24.9039985,26.1231345 24.581271,25.7467485 23.8899092,25.7467485 C23.3368592,25.7467485 22.87582,26.0288889 22.87582,26.5935673 C22.87582,27.5344327 24.3507514,27.7696491 24.3507514,28.3812515 C24.3507514,28.6166667 24.2126367,28.7107135 23.9360131,28.7107135 C23.6593896,28.7107135 23.4751709,28.5224211 23.3827661,28.1931579 L22.8297161,28.2872047" id="Fill-18"></path>
                    <path d="M17.8323662,28.0991111 L17.8323662,27.0168772 C17.8323662,26.1231345 18.2471045,25.7467485 18.9384663,25.7467485 C19.8144408,25.7467485 20.0447634,26.0760117 20.0447634,26.9228304 L20.0447634,27.9579415 C20.0447634,28.851883 19.8144408,29.228269 18.9384663,29.228269 C18.0628858,29.228269 17.8323662,28.8990058 17.8323662,28.0991111 Z M18.5219548,26.970152 L18.5219548,28.0052632 C18.5219548,28.4756959 18.5680587,28.7109123 18.9366931,28.7109123 C19.2133166,28.7109123 19.3516284,28.5228187 19.3516284,27.9581404 L19.3516284,26.970152 C19.3516284,26.5937661 19.3055244,26.2645029 18.9366931,26.2645029 C18.5680587,26.2645029 18.5219548,26.5468421 18.5219548,26.970152 Z" id="Combined-Shape"></path>
                    <path d="M28.9918795,27.9579415 C28.9918795,28.9459298 29.268503,29.228269 30.1903844,29.228269 C30.90401,29.228269 31.1122658,28.8866784 31.1122658,28.5224211 L31.1122658,27.4405848 L30.1442805,27.4405848 L30.1442805,27.9579415 L30.4668109,27.9579415 L30.4668109,28.3343275 C30.4668109,28.6166667 30.3748001,28.7578363 30.1442805,28.7578363 C29.6832413,28.7578363 29.6371373,28.4283743 29.6371373,27.9579415 L29.6371373,27.2051696 C29.6371373,26.6404912 29.6832413,26.2643041 30.1442805,26.2643041 C30.4668109,26.2643041 30.6512266,26.4995205 30.6973305,26.8287836 L31.1581727,26.6404912 C31.1122658,26.0760117 30.7434344,25.7467485 30.0981766,25.7467485 C29.1762952,25.7467485 28.9918795,26.2643041 28.9918795,26.9699532 L28.9918795,27.9579415" id="Fill-21"></path>
                    <path d="M20.3330114,25.8403977 L20.3330114,27.7692515 C20.3330114,28.8986082 20.5227468,29.2594854 21.4907321,29.2594854 C22.2281978,29.2594854 22.4995016,28.8514854 22.4995016,27.8634971 L22.4995016,25.8403977 L21.8540467,25.8403977 L21.8540467,27.7692515 C21.8540467,28.5220234 21.8079428,28.7103158 21.4393085,28.7103158 C21.0704771,28.7103158 21.0243732,28.4279766 21.0243732,27.7223275 L21.0243732,25.8403977 L20.3330114,25.8403977" id="Fill-22"></path>
                    <polyline id="Fill-23" points="26.4910373 25.8409942 26.4910373 29.181345 27.0440873 29.181345 27.0440873 26.9232281 27.827854 29.181345 28.6575275 29.181345 28.6575275 25.8409942 28.1042805 25.8409942 28.1042805 27.9112164 27.3668148 25.8409942 26.4910373 25.8409942"></polyline>
                    <path d="M6.8978559,25.8403977 L6.8978559,27.8634971 C6.8978559,28.8045614 6.99006374,29.2278713 7.91194514,29.2278713 C8.9721383,29.2278713 9.0180452,28.7103158 9.0180452,27.7694503 L9.0180452,25.8403977 L8.37278733,25.8403977 L8.37278733,27.8163743 C8.37278733,28.4750994 8.28077651,28.6633918 7.95804906,28.6633918 C7.58921769,28.6633918 7.54311377,28.4750994 7.54311377,27.7223275 L7.54311377,25.8403977 L6.8978559,25.8403977" id="Fill-24"></path>
                    <polyline id="Fill-25" points="15.2810856 25.8409942 15.2810856 29.181345 15.9263434 29.181345 15.9263434 27.676 16.7099131 27.676 16.7099131 29.181345 17.3551709 29.181345 17.3551709 25.8409942 16.7099131 25.8409942 16.7099131 27.1113216 15.9263434 27.1113216 15.9263434 25.8409942 15.2810856 25.8409942"></polyline>
                    <polyline id="Fill-26" points="1.89085184 25.8409942 1.89085184 29.181345 3.55019896 29.181345 3.55019896 28.6639883 2.53630674 28.6639883 2.53630674 27.722924 3.45818814 27.722924 3.45818814 27.2524912 2.53630674 27.2524912 2.53630674 26.3585497 3.55019896 26.3585497 3.55019896 25.8409942 1.89085184 25.8409942"></polyline>
                    <polyline id="Fill-27" points="12.0817887 25.8409942 12.0817887 29.181345 13.602824 29.181345 13.602824 28.6639883 12.6348387 28.6639883 12.6348387 25.8409942 12.0817887 25.8409942"></polyline>
                    <polygon id="Fill-28" points="25.3807997 29.181345 25.9799536 29.181345 25.9799536 25.8409942 25.3807997 25.8409942"></polygon>
                </g>
            </g>
        </g>
    </g>
</svg>